2.2Hzhigh3min_grf.mot
version=1
nRows=10
nColumns 19
inDegrees=yes
endheader
time	1_ground_force_vx	1_ground_force_vy	1_ground_force_vz	1_ground_force_px	1_ground_force_py	1_ground_force_pz	1_ground_torque_x	1_ground_torque_y	1_ground_torque_z	2_ground_force_vx	2_ground_force_vy	2_ground_force_vz	2_ground_force_px	2_ground_force_py	2_ground_force_pz	2_ground_torque_x	2_ground_torque_y	2_ground_torque_z
            1.253500	           13.455862	          421.887605	          -12.990549	           -0.270586	            0.006164	           -0.393092	           -0.008197	           -0.256996	            0.007913	           15.001475	          352.204389	           37.713176	           -0.289276	            0.005424	           -0.693408	            0.083263	            1.954859	            0.209321
            1.254000	           14.874216	          428.380196	          -13.608233	           -0.270341	            0.006165	           -0.393364	            0.001301	            0.037455	           -0.001190	           16.310380	          353.126375	           38.701394	           -0.289897	            0.005420	           -0.693029	            0.083495	            1.807699	            0.198117
            1.254500	           15.422398	          435.231578	          -13.855361	           -0.270430	            0.006164	           -0.393187	            0.005321	            0.150165	           -0.004780	           19.108349	          356.817285	           39.323404	           -0.290241	            0.005421	           -0.693662	            0.093998	            1.755259	            0.193440
            1.255000	           15.512117	          442.263167	          -14.100578	           -0.270699	            0.006164	           -0.393070	           -0.001951	           -0.055620	            0.001773	           23.453794	          360.144719	           40.178084	           -0.290611	            0.005420	           -0.693637	            0.115979	            1.780917	            0.198681
            1.255500	           15.142547	          448.395078	          -14.761226	           -0.270933	            0.006165	           -0.393333	           -0.017441	           -0.516446	            0.017001	           29.115467	          362.189625	           40.511398	           -0.291575	            0.005416	           -0.693380	            0.153947	            1.915069	            0.214203
            1.256000	           15.872702	          455.429089	          -15.558307	           -0.271084	            0.006164	           -0.393184	           -0.023683	           -0.679524	            0.023214	           34.067430	          366.076032	           40.147659	           -0.291802	            0.005414	           -0.693167	            0.191370	            2.056394	            0.225525
            1.256500	           17.013230	          463.368078	          -17.177954	           -0.271050	            0.006163	           -0.392942	           -0.018041	           -0.491354	            0.018215	           37.615997	          369.404045	           40.017187	           -0.292488	            0.005410	           -0.692747	            0.210788	            2.070019	            0.224243
            1.257000	           18.476873	          470.402292	          -17.976856	           -0.271129	            0.006163	           -0.392968	           -0.007867	           -0.200290	            0.007654	           39.006773	          373.461235	           39.796405	           -0.292525	            0.005410	           -0.692709	            0.213482	            2.043936	            0.217804
            1.257500	           19.939425	          477.798746	          -19.186915	           -0.271129	            0.006163	           -0.392917	            0.006630	            0.158862	           -0.006379	           39.415982	          376.960047	           40.231062	           -0.292705	            0.005409	           -0.692783	            0.209367	            2.002308	            0.213696
            1.258000	           20.853747	          486.092914	          -19.566337	           -0.271368	            0.006162	           -0.392835	            0.008301	            0.193485	           -0.007788	           40.665387	          381.380826	           41.184856	           -0.292777	            0.005410	           -0.692901	            0.222946	            2.090899	            0.225794
